<?xml version="1.0" encoding="UTF-8" standalone="no"?>
<!-- Created with Inkscape (http://www.inkscape.org/) -->

<svg
     xmlns:dc="http://purl.org/dc/elements/1.1/"
     xmlns:cc="http://creativecommons.org/ns#"
     xmlns:rdf="http://www.w3.org/1999/02/22-rdf-syntax-ns#"
     xmlns:svg="http://www.w3.org/2000/svg"
     xmlns="http://www.w3.org/2000/svg"
     xmlns:sodipodi="http://sodipodi.sourceforge.net/DTD/sodipodi-0.dtd"
     xmlns:inkscape="http://www.inkscape.org/namespaces/inkscape"
     width="48.48"
     height="51.48"
     id="svg2"
     version="1.1"
     inkscape:version="0.48.4 r9939"
     sodipodi:docname="cpp.svg">
    <defs
         id="defs4">
        <inkscape:perspective
             sodipodi:type="inkscape:persp3d"
             inkscape:vp_x="0 : 526.2 : 1"
             inkscape:vp_y="0 : 1000 : 0"
             inkscape:vp_z="744.1 : 526.2 : 1"
             inkscape:persp3d-origin="372 : 350.8 : 1"
             id="perspective2996" />
        <filter
             id="filter3012"
             inkscape:label="Drop Shadow"
             color-interpolation-filters="sRGB">
            <feFlood
                 id="feFlood3014"
                 flood-opacity="0.55"
                 flood-color="rgb(0,0,0)"
                 result="flood" />
            <feComposite
                 id="feComposite3016"
                 in2="SourceGraphic"
                 in="flood"
                 operator="in"
                 result="composite1" />
            <feGaussianBlur
                 id="feGaussianBlur3018"
                 stdDeviation="2"
                 result="blur" />
            <feOffset
                 id="feOffset3020"
                 dx="2"
                 dy="2"
                 result="offset" />
            <feComposite
                 id="feComposite3022"
                 in2="offset"
                 in="SourceGraphic"
                 operator="over"
                 result="composite2" />
        </filter>
    </defs>
    <sodipodi:namedview
         id="base"
         pagecolor="#ffffff"
         bordercolor="#666666"
         borderopacity="1.0"
         inkscape:pageopacity="0.0"
         inkscape:pageshadow="2"
         inkscape:zoom="1.98"
         inkscape:cx="72.79"
         inkscape:cy="-38.07"
         inkscape:document-units="px"
         inkscape:current-layer="layer1"
         showgrid="false"
         inkscape:window-width="907"
         inkscape:window-height="720"
         inkscape:window-x="592"
         inkscape:window-y="104"
         inkscape:window-maximized="0"
         fit-margin-top="0"
         fit-margin-left="0"
         fit-margin-right="0"
         fit-margin-bottom="0" />
    <metadata
         id="metadata7">
        <rdf:RDF>
            <cc:Work
                 rdf:about="">
                <dc:format>image/svg+xml</dc:format>
                <dc:type
                     rdf:resource="http://purl.org/dc/dcmitype/StillImage" />
                <dc:title></dc:title>
            </cc:Work>
        </rdf:RDF>
    </metadata>
    <g
         inkscape:label="Camada 1"
         inkscape:groupmode="layer"
         id="layer1"
         transform="translate(-129.3,-200.1)">
        <g
             style="font-size:40px;font-style:normal;font-variant:normal;font-weight:bold;font-stretch:normal;text-align:center;line-height:125%;letter-spacing:0px;word-spacing:0px;text-anchor:middle;fill:#000080;fill-opacity:1;stroke:none;filter:url(#filter3012);font-family:Accanthis ADF Std No2;-inkscape-font-specification:Accanthis ADF Std No2 Bold"
             id="text2985">
            <path
                 d="m 162.5,229.6 11.2,3.4 c -0.8,3.2 -1.9,5.8 -3.6,7.9 -1.6,2.2 -3.6,3.7 -6,4.8 -2.4,1.1 -5.5,1.6 -9.2,1.6 -4.5,0 -8.2,-0.6 -11.1,-1.9 -2.8,-1.3 -5.3,-3.7 -7.4,-7 -2,-3.3 -3.1,-7.5 -3.1,-12.6 0,-6.9 1.8,-12.2 5.5,-15.9 3.6,-3.7 8.8,-5.5 15.5,-5.5 5.2,0 9.3,1 12.3,3.1 3,2.2 5.2,5.4 6.7,9.8 l -11.3,2.5 c -0.4,-1.3 -0.8,-2.2 -1.3,-2.8 -0.7,-0.9 -1.6,-1.7 -2.6,-2.2 -1,-0.6 -2.2,-0.8 -3.5,-0.8 -2.9,0 -5.1,1.1 -6.7,3.5 -1.1,1.7 -1.7,4.5 -1.7,8.2 0,4.6 0.7,7.7 2.1,9.5 1.4,1.7 3.3,2.5 5.9,2.5 2.4,0 4.3,-0.7 5.5,-2.1 1.3,-1.3 2.2,-3.3 2.8,-6"
                 style="font-size:58px;font-weight:normal;line-height:125%;writing-mode:lr-tb;fill:#000080;font-family:Arial Black;-inkscape-font-specification:'Arial Black,'"
                 id="path2990"
                 inkscape:connector-curvature="0" />
        </g>
    </g>
</svg>
